<?xml version="1.0" encoding="UTF-8"?>
<svg width="128px" height="128px" viewBox="0 0 128 128" version="1.1" xmlns="http://www.w3.org/2000/svg" xmlns:xlink="http://www.w3.org/1999/xlink">
    <!-- Generator: Sketch 52.5 (67469) - http://www.bohemiancoding.com/sketch -->
    <title>icon</title>
    <desc>Created with Sketch.</desc>
    <g id="icon" stroke="none" stroke-width="1" fill="none" fill-rule="evenodd">
        <rect fill="#6868C1" x="0" y="0" width="128" height="128"></rect>
        <g id="Group-2" transform="translate(20.000000, 22.000000)">
            <path d="M46.856922,0.426259259 C23.6115106,0.426259259 4.76749645,19.2232222 4.76749645,42.409963 C4.76749645,50.1934444 6.89844681,57.477 10.5985745,63.7260741 L10.5985745,64.9714815 C10.5985745,79.1891481 0.191886525,83.9271111 0.191886525,83.9271111 C0.191886525,83.9271111 15.0618298,83.6393704 22.8963546,77.2933333 L22.9014043,77.2933333 C22.9720993,77.2322593 23.0617305,77.1925926 23.1620922,77.1925926 C23.2624539,77.1925926 23.3520851,77.2322593 23.4227801,77.2933333 L23.4309858,77.2933333 C30.1274468,81.7769259 38.1854184,84.3949259 46.856922,84.3949259 C70.1023333,84.3949259 88.9463475,65.597963 88.9463475,42.409963 C88.9463475,19.2232222 70.1023333,0.426259259 46.856922,0.426259259" id="Fill-4" fill="#49AD9E"></path>
            <path d="M26.8559078,47.379 C25.2059362,47.379 24.410617,46.6473704 24.410617,45.0008889 C24.410617,43.5980741 25.2059362,42.7449259 26.8559078,42.7449259 L26.917766,42.7449259 L26.917766,41.5857778 C26.917766,40.9152222 26.917766,40.182963 26.9783617,39.451963 L26.8559078,39.451963 C25.2059362,39.451963 24.410617,38.7197037 24.410617,37.0738519 C24.410617,35.671037 25.2059362,34.8172593 26.8559078,34.8172593 L27.6505957,34.8172593 C28.5677376,31.098037 30.3407943,27.8661481 32.9079078,25.1826667 C37.0038014,20.853963 42.1386596,18.7195185 48.3131135,18.7195185 C51.9198227,18.7195185 55.0985745,19.4511481 57.7881418,20.9754815 C60.5389362,22.4393704 61.8840355,24.2073704 61.9446312,26.2202963 C61.9446312,28.8420741 60.2940284,31.2201852 57.9105957,31.2812593 C56.7485461,31.3417037 55.404078,30.8537407 53.8759291,29.9395185 C52.3477801,28.9635926 50.5134965,28.4762593 48.3737092,28.4762593 C44.8894539,28.4762593 42.1386596,29.6952222 40.1213262,32.0733333 C39.4490922,32.9271111 38.8374539,33.841963 38.4094965,34.8172593 L47.7627021,34.8172593 C49.2908511,34.8172593 50.2079929,35.671037 50.2079929,37.0738519 C50.2079929,38.7197037 49.2908511,39.451963 47.7627021,39.451963 L37.2487092,39.451963 C37.1874823,40.182963 37.1256241,40.9152222 37.1256241,41.5857778 L37.1256241,42.7449259 L44.2172199,42.7449259 C45.6841418,42.7449259 46.6012837,43.5980741 46.6012837,45.0008889 C46.6012837,46.6473704 45.6841418,47.379 44.2172199,47.379 L38.1039929,47.379 C38.5931773,48.659037 39.2654113,49.8181852 40.1213262,50.8545556 C42.1386596,53.2326667 44.8894539,54.4516296 48.3737092,54.4516296 C50.5134965,54.4516296 52.3477801,53.9642963 53.8759291,53.0500741 C55.404078,52.0741481 56.7485461,51.5868148 57.9105957,51.6472593 C60.2940284,51.7083333 61.9446312,54.1475185 61.9446312,56.6477778 C61.8840355,58.7205185 60.5389362,60.4885185 57.7881418,62.0134815 C55.0985745,63.4767407 51.9198227,64.209 48.3131135,64.209 C42.1386596,64.209 37.0038014,62.0745556 32.9079078,57.7452222 C30.1571135,54.8174444 28.3846879,51.3425185 27.4675461,47.379 L26.8559078,47.379" id="Fill-5" fill="#FDFDFA"></path>
            <path d="M46.856922,2.94477778 C69.6787943,2.94477778 88.245078,21.0667778 88.914156,43.6692222 C88.9267801,43.2498889 88.9463475,42.8324444 88.9463475,42.409963 C88.9463475,19.2232222 70.1023333,0.426259259 46.856922,0.426259259 C23.6115106,0.426259259 4.76749645,19.2232222 4.76749645,42.409963 C4.76749645,42.9067407 4.77633333,43.4003704 4.79337589,43.8921111 C5.34694326,21.1851481 23.9599362,2.94477778 46.856922,2.94477778" id="Fill-6" fill="#63BDAD"></path>
        </g>
    </g>
</svg>